HIERARCHY
ROOT newVegas:Hips
{
	OFFSET 0.000000 96.479958 0.000000
	CHANNELS 6 Xposition Yposition Zposition Xrotation Yrotation Zrotation
	JOINT newVegas:Pelvis
	{
		OFFSET 0.000000 0.000000 0.000000
		CHANNELS 3 Xrotation Yrotation Zrotation
		JOINT newVegas:LeftUpLeg
		{
			OFFSET 18.735201 -5.666702 -4.541200
			CHANNELS 3 Xrotation Yrotation Zrotation
			JOINT newVegas:LeftLeg
			{
				OFFSET -0.021200 -31.938179 0.493100
				CHANNELS 3 Xrotation Yrotation Zrotation
				JOINT newVegas:LeftFoot
				{
					OFFSET 0.021200 -31.938179 -4.336299
					CHANNELS 3 Xrotation Yrotation Zrotation
					JOINT newVegas:LeftToeBase
					{
						OFFSET 0.943001 -26.722000 15.023500
						CHANNELS 3 Xrotation Yrotation Zrotation
						End Site
						{
							OFFSET 0.000000 30.670183 0.000000
						}
					}
				}
				JOINT newVegas:Left_PantLeg
				{
					OFFSET 0.663870 -9.044666 -1.108900
					CHANNELS 3 Xrotation Yrotation Zrotation
					End Site
					{
						OFFSET 1.415995 20.635357 0.000000
					}
				}
			}
		}
		JOINT newVegas:RightUpLeg
		{
			OFFSET -18.735201 -5.666702 -4.541200
			CHANNELS 3 Xrotation Yrotation Zrotation
			JOINT newVegas:RightLeg
			{
				OFFSET 0.018946 -31.938133 0.493100
				CHANNELS 3 Xrotation Yrotation Zrotation
				JOINT newVegas:RightFoot
				{
					OFFSET -0.018946 -31.938126 -4.336299
					CHANNELS 3 Xrotation Yrotation Zrotation
					JOINT newVegas:RightToeBase
					{
						OFFSET -0.943001 -26.722004 15.023500
						CHANNELS 3 Xrotation Yrotation Zrotation
						End Site
						{
							OFFSET 0.000000 30.670187 0.000000
						}
					}
				}
				JOINT newVegas:Right_PantLeg
				{
					OFFSET -0.661674 -9.044716 -1.108900
					CHANNELS 3 Xrotation Yrotation Zrotation
					End Site
					{
						OFFSET -1.415958 20.635269 0.000000
					}
				}
			}
		}
	}
	JOINT newVegas:Spine
	{
		OFFSET 0.000000 10.199997 -0.299500
		CHANNELS 3 Xrotation Yrotation Zrotation
		JOINT newVegas:Spine1
		{
			OFFSET 0.000000 11.900002 -1.516600
			CHANNELS 3 Xrotation Yrotation Zrotation
			JOINT newVegas:Spine2
			{
				OFFSET 0.000000 13.600006 -2.842500
				CHANNELS 3 Xrotation Yrotation Zrotation
				JOINT newVegas:Neck
				{
					OFFSET 0.000000 9.624100 -2.890100
					CHANNELS 3 Xrotation Yrotation Zrotation
					JOINT newVegas:Head
					{
						OFFSET 0.000000 14.068802 -1.351900
						CHANNELS 3 Xrotation Yrotation Zrotation
						JOINT newVegas:Hair_Back
						{
							OFFSET 0.000000 3.231903 -17.524799
							CHANNELS 3 Xrotation Yrotation Zrotation
							End Site
							{
								OFFSET 0.000000 19.849884 0.000000
							}
						}
						JOINT newVegas:Hair_Front
						{
							OFFSET 0.000000 31.260406 4.573800
							CHANNELS 3 Xrotation Yrotation Zrotation
							JOINT newVegas:Hair_Front1
							{
								OFFSET 0.000000 2.284103 11.993300
								CHANNELS 3 Xrotation Yrotation Zrotation
								JOINT newVegas:Hair_Front2
								{
									OFFSET 0.000000 2.284103 11.993300
									CHANNELS 3 Xrotation Yrotation Zrotation
									End Site
									{
										OFFSET 0.000000 12.208862 0.000000
									}
								}
							}
						}
						JOINT newVegas:Jowel
						{
							OFFSET 0.000000 -7.458206 6.864100
							CHANNELS 3 Xrotation Yrotation Zrotation
							End Site
							{
								OFFSET 0.000000 19.849884 0.000000
							}
						}
					}
				}
				JOINT newVegas:LeftShoulder
				{
					OFFSET 15.263000 10.923401 -0.547700
					CHANNELS 3 Xrotation Yrotation Zrotation
					JOINT newVegas:LeftArm
					{
						OFFSET 25.438599 -2.830597 -13.032500
						CHANNELS 3 Xrotation Yrotation Zrotation
						JOINT newVegas:LeftForeArm
						{
							OFFSET 29.960503 0.000000 0.000000
							CHANNELS 3 Xrotation Yrotation Zrotation
							JOINT newVegas:LeftHand
							{
								OFFSET 27.849251 0.000000 0.000000
								CHANNELS 3 Xrotation Yrotation Zrotation
								JOINT newVegas:LeftHandThumb1
								{
									OFFSET 4.487587 -3.305161 6.305391
									CHANNELS 3 Xrotation Yrotation Zrotation
									JOINT newVegas:LeftHandThumb2
									{
										OFFSET 5.480453 -3.164139 3.164143
										CHANNELS 3 Xrotation Yrotation Zrotation
										JOINT newVegas:LeftHandThumb3
										{
											OFFSET 5.159721 -2.978973 2.978967
											CHANNELS 3 Xrotation Yrotation Zrotation
											End Site
											{
												OFFSET 2.494507 5.926697 1.738678
											}
										}
									}
								}
								JOINT newVegas:LeftHandIndex1
								{
									OFFSET 18.578728 -0.527832 5.208049
									CHANNELS 3 Xrotation Yrotation Zrotation
									JOINT newVegas:LeftHandIndex2
									{
										OFFSET 3.192009 0.000000 0.000000
										CHANNELS 3 Xrotation Yrotation Zrotation
										JOINT newVegas:LeftHandIndex3
										{
											OFFSET 3.835129 0.000000 0.000000
											CHANNELS 3 Xrotation Yrotation Zrotation
											End Site
											{
												OFFSET -0.034599 3.816971 0.371180
											}
										}
									}
								}
								JOINT newVegas:LeftHandMiddle1
								{
									OFFSET 18.476105 0.000000 0.000000
									CHANNELS 3 Xrotation Yrotation Zrotation
									JOINT newVegas:LeftHandMiddle2
									{
										OFFSET 3.324875 0.000000 0.000000
										CHANNELS 3 Xrotation Yrotation Zrotation
										JOINT newVegas:LeftHandMiddle3
										{
											OFFSET 4.596550 0.000000 0.000000
											CHANNELS 3 Xrotation Yrotation Zrotation
											End Site
											{
												OFFSET 0.057701 4.578827 0.399218
											}
										}
									}
								}
								JOINT newVegas:LeftHandRing1
								{
									OFFSET 17.732719 0.121887 -4.201567
									CHANNELS 3 Xrotation Yrotation Zrotation
									JOINT newVegas:LeftHandRing2
									{
										OFFSET 2.733170 0.000000 0.000000
										CHANNELS 3 Xrotation Yrotation Zrotation
										JOINT newVegas:LeftHandRing3
										{
											OFFSET 3.178268 0.000000 0.000000
											CHANNELS 3 Xrotation Yrotation Zrotation
											End Site
											{
												OFFSET 0.119102 3.170624 0.185394
											}
										}
									}
								}
								JOINT newVegas:LeftHandPinky1
								{
									OFFSET 15.989624 -0.606689 -7.535461
									CHANNELS 3 Xrotation Yrotation Zrotation
									JOINT newVegas:LeftHandPinky2
									{
										OFFSET 2.538986 0.000000 0.000000
										CHANNELS 3 Xrotation Yrotation Zrotation
										JOINT newVegas:LeftHandPinky3
										{
											OFFSET 2.593102 0.000000 0.000000
											CHANNELS 3 Xrotation Yrotation Zrotation
											End Site
											{
												OFFSET -0.150902 2.584198 0.152708
											}
										}
									}
								}
							}
							JOINT newVegas:Left_Sleeve
							{
								OFFSET 0.267448 -0.649796 0.577675
								CHANNELS 3 Xrotation Yrotation Zrotation
								End Site
								{
									OFFSET 0.000000 15.991241 0.000000
								}
							}
							JOINT newVegas:Left_CapeC
							{
								OFFSET 15.715958 -8.608795 -6.935905
								CHANNELS 3 Xrotation Yrotation Zrotation
								JOINT newVegas:Left_CapeC1
								{
									OFFSET 0.000000 -8.688499 0.000000
									CHANNELS 3 Xrotation Yrotation Zrotation
									End Site
									{
										OFFSET 0.000000 8.688499 0.000000
									}
								}
							}
						}
						JOINT newVegas:Left_CapeB
						{
							OFFSET 26.118385 -8.608795 -7.079235
							CHANNELS 3 Xrotation Yrotation Zrotation
							JOINT newVegas:Left_CapeB1
							{
								OFFSET 0.000000 -8.688499 0.000000
								CHANNELS 3 Xrotation Yrotation Zrotation
								End Site
								{
									OFFSET 0.000000 8.688499 0.000000
								}
							}
						}
						JOINT newVegas:Left_CapeA
						{
							OFFSET 5.115639 -8.608795 -10.395809
							CHANNELS 3 Xrotation Yrotation Zrotation
							JOINT newVegas:Left_CapeA1
							{
								OFFSET 0.000000 -8.688499 0.000000
								CHANNELS 3 Xrotation Yrotation Zrotation
								End Site
								{
									OFFSET 0.000000 8.688499 0.000000
								}
							}
						}
					}
				}
				JOINT newVegas:RightShoulder
				{
					OFFSET -15.263000 10.923401 -0.547700
					CHANNELS 3 Xrotation Yrotation Zrotation
					JOINT newVegas:RightArm
					{
						OFFSET -25.438599 -2.830597 -13.032500
						CHANNELS 3 Xrotation Yrotation Zrotation
						JOINT newVegas:RightForeArm
						{
							OFFSET -29.960503 0.000000 0.000000
							CHANNELS 3 Xrotation Yrotation Zrotation
							JOINT newVegas:RightHand
							{
								OFFSET -27.849251 0.000000 0.000000
								CHANNELS 3 Xrotation Yrotation Zrotation
								JOINT newVegas:RightHandThumb1
								{
									OFFSET -4.487587 -3.305161 6.305391
									CHANNELS 3 Xrotation Yrotation Zrotation
									JOINT newVegas:RightHandThumb2
									{
										OFFSET -5.480453 -3.164139 3.164143
										CHANNELS 3 Xrotation Yrotation Zrotation
										JOINT newVegas:RightHandThumb3
										{
											OFFSET -5.159721 -2.978973 2.978967
											CHANNELS 3 Xrotation Yrotation Zrotation
											End Site
											{
												OFFSET -2.494507 5.926697 1.738678
											}
										}
									}
								}
								JOINT newVegas:RightHandIndex1
								{
									OFFSET -18.578728 -0.527832 5.208049
									CHANNELS 3 Xrotation Yrotation Zrotation
									JOINT newVegas:RightHandIndex2
									{
										OFFSET -3.192009 0.000000 0.000000
										CHANNELS 3 Xrotation Yrotation Zrotation
										JOINT newVegas:RightHandIndex3
										{
											OFFSET -3.835129 0.000000 0.000000
											CHANNELS 3 Xrotation Yrotation Zrotation
											End Site
											{
												OFFSET 0.034599 3.816971 0.371180
											}
										}
									}
								}
								JOINT newVegas:RightHandMiddle1
								{
									OFFSET -18.476105 0.000000 0.000000
									CHANNELS 3 Xrotation Yrotation Zrotation
									JOINT newVegas:RightHandMiddle2
									{
										OFFSET -3.324875 0.000000 0.000000
										CHANNELS 3 Xrotation Yrotation Zrotation
										JOINT newVegas:RightHandMiddle3
										{
											OFFSET -4.596550 0.000000 0.000000
											CHANNELS 3 Xrotation Yrotation Zrotation
											End Site
											{
												OFFSET -0.057701 4.578827 0.399218
											}
										}
									}
								}
								JOINT newVegas:RightHandRing1
								{
									OFFSET -17.732719 0.121887 -4.201567
									CHANNELS 3 Xrotation Yrotation Zrotation
									JOINT newVegas:RightHandRing2
									{
										OFFSET -2.733170 0.000000 0.000000
										CHANNELS 3 Xrotation Yrotation Zrotation
										JOINT newVegas:RightHandRing3
										{
											OFFSET -3.178268 0.000000 0.000000
											CHANNELS 3 Xrotation Yrotation Zrotation
											End Site
											{
												OFFSET -0.119102 3.170624 0.185394
											}
										}
									}
								}
								JOINT newVegas:RightHandPinky1
								{
									OFFSET -15.989624 -0.606689 -7.535461
									CHANNELS 3 Xrotation Yrotation Zrotation
									JOINT newVegas:RightHandPinky2
									{
										OFFSET -2.538986 0.000000 0.000000
										CHANNELS 3 Xrotation Yrotation Zrotation
										JOINT newVegas:RightHandPinky3
										{
											OFFSET -2.593102 0.000000 0.000000
											CHANNELS 3 Xrotation Yrotation Zrotation
											End Site
											{
												OFFSET 0.150902 2.584198 0.152708
											}
										}
									}
								}
							}
							JOINT newVegas:Right_CapeC
							{
								OFFSET -15.715958 -8.608795 -6.935905
								CHANNELS 3 Xrotation Yrotation Zrotation
								JOINT newVegas:Right_CapeC1
								{
									OFFSET 0.000000 -8.688499 0.000000
									CHANNELS 3 Xrotation Yrotation Zrotation
									End Site
									{
										OFFSET 0.000000 8.688499 0.000000
									}
								}
							}
							JOINT newVegas:Right_Sleeve
							{
								OFFSET -0.267448 -0.649994 0.577675
								CHANNELS 3 Xrotation Yrotation Zrotation
								End Site
								{
									OFFSET 0.000000 15.991302 0.000000
								}
							}
						}
						JOINT newVegas:Right_CapeA
						{
							OFFSET -5.115540 -8.608795 -10.395824
							CHANNELS 3 Xrotation Yrotation Zrotation
							JOINT newVegas:Right_CapeA1
							{
								OFFSET 0.000000 -8.688499 0.000000
								CHANNELS 3 Xrotation Yrotation Zrotation
								End Site
								{
									OFFSET 0.000000 8.688499 0.000000
								}
							}
						}
						JOINT newVegas:Right_CapeB
						{
							OFFSET -26.118187 -8.608795 -7.079266
							CHANNELS 3 Xrotation Yrotation Zrotation
							JOINT newVegas:Right_CapeB1
							{
								OFFSET 0.000000 -8.688499 0.000000
								CHANNELS 3 Xrotation Yrotation Zrotation
								End Site
								{
									OFFSET 0.000000 8.688499 0.000000
								}
							}
						}
					}
				}
				JOINT newVegas:Left_Collar
				{
					OFFSET 18.625099 8.655502 8.828100
					CHANNELS 3 Xrotation Yrotation Zrotation
					JOINT newVegas:Left_Collar1
					{
						OFFSET 14.783401 10.540405 -1.259500
						CHANNELS 3 Xrotation Yrotation Zrotation
						End Site
						{
							OFFSET 0.000000 18.199875 0.000000
						}
					}
				}
				JOINT newVegas:Collar_Back
				{
					OFFSET 0.000000 15.630707 -20.132601
					CHANNELS 3 Xrotation Yrotation Zrotation
					End Site
					{
						OFFSET 0.000000 22.523010 0.000000
					}
				}
				JOINT newVegas:Left_Peck
				{
					OFFSET 17.239599 -5.132599 25.482599
					CHANNELS 3 Xrotation Yrotation Zrotation
					End Site
					{
						OFFSET 0.000000 22.523010 0.000000
					}
				}
				JOINT newVegas:Right_Peck
				{
					OFFSET -17.239599 -5.132202 25.482599
					CHANNELS 3 Xrotation Yrotation Zrotation
					End Site
					{
						OFFSET 0.000000 22.523010 0.000000
					}
				}
				JOINT newVegas:Right_Collar
				{
					OFFSET -18.625099 8.655792 8.828100
					CHANNELS 3 Xrotation Yrotation Zrotation
					JOINT newVegas:Right_Collar1
					{
						OFFSET -14.783401 10.539993 -1.259500
						CHANNELS 3 Xrotation Yrotation Zrotation
						End Site
						{
							OFFSET 0.000000 18.199631 0.000000
						}
					}
				}
			}
		}
		JOINT newVegas:Belly
		{
			OFFSET 0.000000 -6.540398 9.014299
			CHANNELS 3 Xrotation Yrotation Zrotation
			End Site
			{
				OFFSET 0.000000 11.566666 0.000000
			}
		}
	}
	JOINT newVegas:ElvisFacialAnim_Joint
	{
		OFFSET 1.000000 -95.330101 -8.825800
		CHANNELS 3 Xrotation Yrotation Zrotation
		End Site
		{
			OFFSET 0.000000 35.315800 0.000000
		}
	}
}
MOTION
Frames: 4
Frame Time: 0.016667
-2.783951 87.822502 2.837309 -6.078099 -42.937936 -3.789455 0.000000 -0.000002 -0.000000 -34.392919 2.849983 16.371236 38.632752 -14.745561 -0.131485 -1.804801 0.989422 -11.110821 -0.000000 -0.000001 -0.000000 0.000000 -0.000001 -0.000000 1.083495 -13.658542 -18.458156 33.744761 -7.728713 -0.245042 -25.562960 -6.500520 21.389700 0.000000 0.000000 0.000000 0.000000 0.000000 -0.000004 5.850705 4.525945 -1.454931 11.836540 9.037613 -3.083970 11.836544 9.037612 -3.083970 -0.860915 -0.253287 0.048899 -0.860911 -0.253279 0.048897 -0.000002 -0.000001 0.000001 -0.860902 -0.253282 0.048898 -0.860915 -0.253286 0.048897 -0.000002 0.000002 -0.000001 -0.000002 -0.000001 0.000000 1.392464 -0.696061 -7.877846 -14.260090 2.394338 -63.277106 9.865074 -47.524921 5.927950 16.172834 0.915174 18.795414 9.163610 4.814107 -5.499033 -0.335357 0.032555 0.783679 0.000003 -0.000001 -0.000001 -0.902008 -6.980954 -3.808419 0.033405 0.804246 -16.418981 -0.000003 0.000002 -0.000002 1.947872 9.683093 -14.539791 -0.456434 -1.565439 -21.881023 0.000000 -0.000001 0.000000 2.605877 14.896818 -31.345258 -0.576871 -2.712389 -32.011543 0.000003 0.000001 0.000001 4.170573 18.495049 -34.987320 -0.706798 -5.788636 -39.372940 -0.000000 0.000000 -0.000003 0.000000 -0.000001 -0.000001 0.000000 -0.000001 -0.000001 -0.000001 -0.000001 -0.000001 0.000001 -0.000001 0.000002 0.000001 0.000000 0.000002 0.000001 -0.000001 0.000002 0.000001 -0.000001 0.000002 1.410922 9.461496 9.792742 1.220057 -24.270702 60.532920 -6.660705 41.858408 8.043835 6.225256 12.322330 11.673329 -8.895845 -4.903141 -0.383716 7.904814 -19.192478 -2.856842 0.000002 -0.000002 -0.000001 -1.085501 -1.215484 4.525227 0.142127 -1.115556 16.942660 0.000000 0.000001 0.000000 -0.663636 -2.903892 12.731578 -0.660572 1.813471 30.578999 0.000000 0.000002 0.000001 2.423628 -7.404552 21.763259 -0.989711 3.764323 37.431151 0.000000 0.000004 -0.000000 3.481031 -10.055081 24.322734 -1.458327 7.872037 41.091951 0.000002 -0.000000 0.000002 -0.000000 -0.000000 0.000002 -0.000000 -0.000001 0.000001 -0.000000 -0.000000 0.000002 -0.000002 0.000001 0.000001 -0.000002 0.000002 -0.000000 -0.000002 0.000001 0.000001 -0.000002 0.000002 -0.000000 -0.000002 0.000001 -0.000000 -0.000002 0.000001 -0.000000 -0.000002 0.000001 -0.000000 -0.000002 0.000001 -0.000000 -0.000002 0.000001 -0.000000 -0.000002 0.000001 -0.000000 -0.000002 0.000001 -0.000000 -0.000000 0.000002 -0.000000 0.000000 -0.000002 -0.000000 
-2.796172 87.794228 2.851899 -5.895713 -42.920301 -3.633737 -0.000000 0.000002 -0.000000 -34.536811 2.796550 16.311475 38.681605 -14.678193 -0.120003 -1.825722 0.990681 -11.143233 -0.000000 -0.000000 0.000000 -0.000001 0.000004 -0.000000 0.852795 -13.600602 -18.414086 34.043159 -8.086781 -0.292374 -25.642301 -6.527938 21.404870 -0.000000 -0.000000 0.000000 0.000002 0.000000 -0.000001 5.800819 4.441811 -1.473257 11.734902 8.869617 -3.113898 11.734907 8.869607 -3.113897 -0.833324 -0.185567 0.034667 -0.833333 -0.185559 0.034665 0.000000 0.000002 -0.000000 -0.833328 -0.185565 0.034666 -0.833259 -0.185569 0.034667 0.000002 -0.000001 0.000000 0.000000 0.000002 0.000000 1.386626 -0.844141 -7.964508 -14.201896 2.560081 -62.985368 9.704263 -47.394464 5.847723 16.129183 0.756313 18.624104 8.640753 4.433197 -5.561625 -0.408216 0.793613 0.350497 0.000002 0.000001 -0.000003 -1.041381 -6.906994 -4.872323 0.025685 0.590441 -17.734651 -0.000001 0.000000 -0.000001 2.035074 9.279529 -16.022058 -0.473440 -1.804224 -24.052868 -0.000003 0.000001 0.000000 2.690496 14.538165 -32.911929 -0.496773 -2.772646 -33.741268 0.000004 0.000001 -0.000000 4.266842 18.108542 -37.030294 -0.686414 -5.727459 -41.165574 0.000002 -0.000003 0.000002 0.000000 0.000001 0.000000 0.000000 0.000001 0.000000 -0.000001 0.000001 0.000000 -0.000002 0.000000 0.000002 -0.000001 0.000000 0.000000 -0.000002 0.000000 0.000002 -0.000001 -0.000000 0.000002 1.382082 9.291157 9.911531 1.351748 -24.130090 60.409827 -6.095246 41.947190 7.777816 6.458488 12.305880 11.387799 -8.420291 -4.538850 0.140657 7.828464 -18.508802 -2.441033 0.000002 -0.000001 -0.000001 -1.150894 -0.748952 3.855727 0.139044 -1.114656 16.972393 -0.000000 -0.000000 -0.000001 -0.656020 -2.941658 12.234556 -0.660080 1.806543 30.514010 0.000001 0.000002 -0.000000 2.492900 -7.589644 21.295995 -0.992151 3.759910 37.371155 -0.000001 0.000001 0.000002 3.629656 -10.398267 23.891174 -1.459799 7.869082 41.061885 0.000000 -0.000000 -0.000001 -0.000000 -0.000001 0.000003 -0.000002 -0.000000 0.000001 -0.000000 -0.000001 0.000003 0.000001 0.000001 -0.000001 0.000001 0.000002 -0.000001 0.000001 0.000001 -0.000001 0.000001 0.000002 -0.000003 0.000001 0.000001 0.000000 0.000001 0.000001 0.000000 0.000001 0.000001 0.000000 0.000001 0.000001 0.000000 0.000001 0.000001 0.000000 0.000001 0.000001 0.000000 0.000001 0.000001 0.000000 -0.000000 0.000004 -0.000000 -0.000000 0.000002 -0.000000 
-2.798892 87.765808 2.872939 -5.658449 -42.846169 -3.433406 -0.000000 0.000001 -0.000000 -34.734340 2.735377 16.212854 38.711723 -14.620220 -0.106455 -1.816712 0.987785 -11.166094 0.000000 0.000003 0.000000 0.000000 0.000004 0.000001 0.619485 -13.539582 -18.341452 34.331379 -8.534941 -0.351201 -25.714863 -6.561634 21.433601 -0.000000 -0.000000 0.000000 0.000001 -0.000001 -0.000000 5.749149 4.355221 -1.493204 11.629819 8.696609 -3.147943 11.629815 8.696622 -3.147945 -0.838033 -0.114998 0.012067 -0.838044 -0.114990 0.012064 -0.000001 0.000002 -0.000001 -0.838057 -0.114995 0.012068 -0.838021 -0.115008 0.012070 -0.000000 -0.000000 -0.000000 -0.000001 0.000002 -0.000000 1.380122 -0.996760 -8.053122 -14.173302 2.709393 -62.680919 9.587342 -47.246686 5.801146 16.163759 0.571972 18.440099 8.124637 4.043967 -5.653092 -0.446817 1.595468 -0.110211 0.000002 0.000000 0.000001 -1.182641 -6.814252 -6.019471 0.012809 0.363554 -19.154340 -0.000000 0.000001 0.000001 2.116441 8.859750 -17.622189 -0.502092 -2.058245 -26.396215 0.000004 -0.000000 -0.000000 2.764115 14.158145 -34.618240 -0.416503 -2.836987 -35.640064 -0.000000 -0.000001 -0.000001 4.332966 17.683409 -39.232511 -0.662768 -5.660015 -43.158753 0.000002 0.000002 0.000003 -0.000002 -0.000001 0.000001 -0.000002 -0.000001 0.000001 -0.000003 -0.000001 0.000001 0.000001 -0.000001 0.000001 0.000002 -0.000001 0.000000 0.000001 -0.000001 0.000001 0.000001 -0.000001 0.000001 1.353087 9.120822 10.030856 1.496275 -24.000624 60.284944 -5.499474 42.033121 7.478103 6.779210 12.246903 11.024425 -7.858783 -4.169039 0.765184 7.781530 -17.752254 -1.975171 0.000002 -0.000002 -0.000001 -1.206877 -0.257587 3.105311 0.136257 -1.127642 16.886261 0.000000 0.000000 0.000000 -0.647815 -2.986973 11.671363 -0.658986 1.789984 30.358012 0.000001 0.000001 -0.000000 2.561826 -7.792021 20.772977 -0.998018 3.749323 37.227133 0.000000 0.000001 0.000003 3.778050 -10.770705 23.398819 -1.463327 7.861990 40.989652 0.000000 0.000002 -0.000000 0.000003 -0.000001 0.000004 0.000001 -0.000001 0.000002 0.000003 -0.000001 0.000004 0.000001 0.000000 -0.000000 0.000001 0.000001 0.000000 0.000001 0.000000 -0.000000 0.000001 0.000001 -0.000000 0.000002 0.000000 -0.000001 0.000002 0.000000 -0.000001 0.000002 0.000000 -0.000001 0.000002 0.000000 -0.000001 0.000002 0.000000 -0.000001 0.000002 0.000000 -0.000001 0.000002 0.000000 -0.000001 0.000000 -0.000001 -0.000000 -0.000000 0.000001 -0.000000 
-2.792771 87.736732 2.900318 -5.369855 -42.718431 -3.200476 0.000000 -0.000001 -0.000000 -34.984915 2.654590 16.090242 38.713055 -14.612312 -0.092480 -1.766106 0.983439 -11.193568 0.000000 0.000001 0.000000 0.000000 0.000001 -0.000000 0.390400 -13.476464 -18.230992 34.597640 -9.071271 -0.420615 -25.772990 -6.600059 21.477608 -0.000000 0.000002 0.000000 -0.000002 0.000000 -0.000000 5.696674 4.267149 -1.511186 11.522930 8.520901 -3.178271 11.522931 8.520907 -3.178272 -0.874574 -0.038141 -0.018699 -0.874572 -0.038131 -0.018702 -0.000000 0.000000 -0.000000 -0.874510 -0.038118 -0.018705 -0.874577 -0.038144 -0.018701 -0.000000 0.000002 -0.000000 -0.000000 0.000000 0.000000 1.373127 -1.153257 -8.144306 -14.167245 2.845064 -62.375781 9.516529 -47.090367 5.789326 16.272649 0.371198 18.260296 7.615080 3.647156 -5.772858 -0.452411 2.437060 -0.597105 0.000001 -0.000002 0.000002 -1.323885 -6.703295 -7.245804 -0.006525 0.124187 -20.673154 0.000004 -0.000001 -0.000001 2.188777 8.425075 -19.334479 -0.544332 -2.326905 -28.903103 0.000002 -0.000001 0.000000 2.823282 13.758646 -36.457101 -0.336089 -2.906757 -37.699902 0.000004 -0.000001 0.000002 4.364299 17.223796 -41.585337 -0.634321 -5.587190 -45.342836 -0.000000 -0.000001 -0.000004 0.000002 0.000001 -0.000000 0.000002 0.000001 -0.000000 0.000001 0.000001 -0.000000 0.000001 0.000000 -0.000000 0.000001 0.000000 -0.000001 0.000001 0.000000 -0.000000 0.000002 0.000000 -0.000000 1.325406 8.962433 10.136578 1.656986 -23.878765 60.165012 -4.869293 42.117716 7.144450 7.188156 12.148865 10.581795 -7.214454 -3.789430 1.485789 7.762075 -16.923530 -1.462402 0.000001 -0.000002 -0.000001 -1.250349 0.258048 2.275967 0.133632 -1.154118 16.687194 -0.000001 0.000001 -0.000000 -0.639256 -3.039716 11.043631 -0.657389 1.764010 30.113365 0.000001 0.000001 0.000000 2.629493 -8.011476 20.195457 -1.007282 3.732825 37.001245 0.000001 0.000004 0.000001 3.924445 -11.172146 22.846795 -1.468904 7.850904 40.876367 -0.000000 0.000001 0.000006 0.000002 0.000000 0.000000 0.000000 -0.000000 0.000000 0.000002 0.000000 0.000000 -0.000000 -0.000003 -0.000001 0.000000 -0.000002 -0.000001 -0.000000 -0.000003 -0.000001 0.000000 -0.000002 -0.000003 -0.000000 0.000000 0.000000 -0.000000 0.000000 0.000000 -0.000000 0.000000 0.000000 -0.000000 0.000000 0.000000 -0.000000 0.000000 0.000000 -0.000000 0.000000 0.000000 -0.000000 0.000000 0.000000 -0.000000 -0.000001 0.000000 0.000000 -0.000001 -0.000000 
